<?xml version="1.0" encoding="utf-8"?>
<!-- Generator: Adobe Illustrator 24.0.3, SVG Export Plug-In . SVG Version: 6.00 Build 0)  -->
<svg version="1.1" id="Calque_1" xmlns="http://www.w3.org/2000/svg" xmlns:xlink="http://www.w3.org/1999/xlink" x="0px" y="0px"
	 viewBox="0 0 841.9 595.3" style="enable-background:new 0 0 841.9 595.3;" xml:space="preserve">
<style type="text/css">
	.st0{fill:#9AC31C;}
	.st1{fill:#2D2E87;}
</style>
<title>LYRECO_LOGOTYPE_RVB</title>
<g id="Calque_1_1_">
	<g>
		<g>
			<path class="st0" d="M344.7,154.6C233.1,165.4,142,199.4,100.5,244l23,54.1h0.1c0.1-68,93.9-125.2,221-141.9L344.7,154.6z"/>
			<path class="st0" d="M719.1,298.2v0.1c0,68.1-93.8,125.3-221,142v1.7c111.6-10.8,202.7-44.8,244.2-89.4L719.1,298.2z"/>
		</g>
		<g>
			<path class="st1" d="M184,339.5V239.1l25-10.6v88.4h37.7l9.7,22.7H184z"/>
			<path class="st1" d="M344.1,339.5v-81.6h24.1v11.2c3.7-8.3,12.5-13,23.6-13c3.9,0.1,7.7,0.5,11.5,1.2l-9.1,21.4
				c-9-3.2-26.1,2.2-26.1,21v39.9L344.1,339.5z"/>
			<path class="st1" d="M405.1,298.6c0-12.8,4.2-23.2,12.5-30.9c8.3-7.9,19-11.8,31.8-11.8c12.5,0,22.5,4,30.3,12
				s11.7,17.7,11.7,29.5c0,2.8-0.2,5.4-0.3,7.8h-61.7c0.5,9.7,8.9,16,21.7,16c7.4,0.1,14.6-2.8,19.9-7.9l14.1,13.5
				c-9.1,9.7-21.9,15.1-35.1,14.9c-13.4,0-24.1-3.9-32.4-11.5c-8.3-7.8-12.3-18-12.3-30.8L405.1,298.6z M467,289.3
				c0-7.6-7.9-13.6-17.6-13.6c-10.5,0-19.1,6-19.8,13.6H467z"/>
			<path class="st1" d="M656,268.1c8.7,7.8,13.5,19,13.3,30.6c0.2,11.7-4.6,22.9-13.3,30.8c-18.2,16.6-46.1,16.6-64.3,0
				c-8.5-7.9-13.3-19.1-13.1-30.8c-0.2-11.6,4.6-22.8,13.1-30.6c8.9-8.4,19.6-12.6,32.2-12.6C635.9,255.3,647.4,259.8,656,268.1z
				 M608.8,314c8.4,8.2,21.8,8.2,30.2,0c4-4,6.2-9.5,6.2-15.2c0.1-5.7-2.1-11.1-6.2-15.1c-8.2-8.3-21.6-8.4-29.9-0.3
				c-0.1,0.1-0.2,0.2-0.3,0.3c-4,4-6.3,9.4-6.2,15.1C602.6,304.4,604.8,310,608.8,314z"/>
			<path class="st1" d="M310.2,257.9c-5.7,13.3-14.4,33.3-18.6,43.3c-0.7,1.6-1.5,3.5-2.5,5.6L268,257.5l-21,9l28,65.5
				c-4.2,6.3-9.2,12.1-14.8,17.3l9.4,21.9c21.9-16.6,36.2-45,43-61.2c5.4-12.7,17.9-41.7,22.4-52.2L310.2,257.9z"/>
			<path class="st1" d="M545.7,319.8c-11.7,0-20.9-8.9-20.9-21.2s9.1-21.4,20.9-21.4c7.3,0,13.4,2.7,18.8,8.4l8.9-20.9
				c-7.9-6.2-17.7-9.5-27.7-9.3c-12.6,0-23.3,4.2-32.1,12.5c-8.6,8.3-13,18.5-13,30.8s4.4,22.5,13,30.8c8.8,8.3,19.4,12.3,32.1,12.3
				c9.9,0.2,19.5-3,27.3-9l-8.9-20.9C558.9,317.1,552.8,319.8,545.7,319.8z"/>
		</g>
	</g>
</g>
</svg>
